# File created by Blade
# Date/Time:  Mon Nov 18 18:33:23 2013
# Frame Rate: 100.000 fps
#------------------------------------------------------
:FULLY-SPECIFIED
:DEGREES
19
root 51.893404 0.246184 52.531369 -5.697355 4.376147 -128.481880
Spine 6.757237 -1.025496 -0.693472
Spine1 1.977963 1.193960 -1.473188
Spine2 0.839356 -2.479151 -1.898469
NeckDummy 0.002083 -0.035258 -0.020459 -0.622096 1.649908 -0.711879
Neck 23.681393 4.963366 30.355015
Head -0.311936 0.387693 0.141406 -33.255061 -4.208989 -0.721856
LeftShoulderDummy -0.064894 -0.037101 -0.000781 -0.587563 1.512988 -0.521857
LeftShoulder 11.070944 -3.854502 18.350248
LeftArm 0.002821 43.100929 14.124000
LeftForeArm 92.205384
LeftForeArmRoll -27.495795
LeftHand -8.901513 3.068805 -2.990112
LeftHandThumb1 15.317787 12.772165
LeftHandIndex1 16.381789 41.404080
LeftHandPinky1 14.288647 46.292153
RightShoulderDummy -0.022724 -0.012052 0.038545 -0.638345 -1.683115 0.803760
RightShoulder 8.031245 3.720972 21.324918
RightArm -52.961239 49.973909 -3.056779
RightForeArm 115.995270
RightForeArmRoll 7.538194
RightHand -17.411118 -16.052669 12.457322
RightHandThumb1 -1.289501 13.890376
RightHandIndex1 14.499278 59.154476
RightHandPinky1 19.201182 68.982376
LeftUpLeg 15.998354 10.266160 -8.539189
LeftLeg 30.998809
LeftFoot 0.401786 -0.573889 -0.335625 -10.112854 11.303112 -9.991279
LeftToeBase -1.772273
RightUpLeg 11.752323 14.119141 -6.800312
RightLeg 34.385995
RightFoot -0.412485 0.258211 0.080517 -3.006734 4.275920 -21.605403
RightToeBase -0.693041
20
root 51.835637 0.249947 52.569000 -5.706004 4.344365 -128.526407
Spine 6.754764 -1.006501 -0.678635
Spine1 1.985677 1.208443 -1.435898
Spine2 0.824136 -2.432235 -1.949350
NeckDummy 0.002430 -0.036599 -0.019977 -0.609565 1.682938 -0.706369
Neck 23.691145 4.872298 30.282573
Head -0.312860 0.385356 0.144524 -33.309232 -4.227677 -0.714079
LeftShoulderDummy -0.063134 -0.037895 -0.001297 -0.574698 1.546851 -0.521019
LeftShoulder 11.190748 -3.936101 18.377355
LeftArm 0.268325 42.960791 14.293211
LeftForeArm 92.219714
LeftForeArmRoll -27.427283
LeftHand -9.002331 3.276902 -3.020906
LeftHandThumb1 15.146582 12.637638
LeftHandIndex1 16.457579 41.101672
LeftHandPinky1 14.349740 46.177386
RightShoulderDummy -0.021924 -0.013344 0.039240 -0.625641 -1.716539 0.799003
RightShoulder 8.012432 3.752935 21.261327
RightArm -52.890841 49.999106 -3.097348
RightForeArm 115.959402
RightForeArmRoll 7.650765
RightHand -17.400043 -16.114808 12.273674
RightHandThumb1 -1.220546 14.020198
RightHandIndex1 14.591011 59.856959
RightHandPinky1 19.354499 69.131563
LeftUpLeg 16.086661 10.187310 -8.408194
LeftLeg 30.873597
LeftFoot 0.391415 -0.566397 -0.349390 -9.721172 11.210391 -10.003204
LeftToeBase -2.014544
RightUpLeg 11.819771 14.221720 -6.717566
RightLeg 34.258513
RightFoot -0.408709 0.258341 0.087465 -3.151927 4.165716 -21.459232
RightToeBase -0.681494
21
root 51.777702 0.250079 52.605034 -5.684536 4.316682 -128.576779
Spine 6.707424 -1.006460 -0.650141
Spine1 1.996400 1.212014 -1.367715
Spine2 0.818353 -2.339685 -2.023467
NeckDummy 0.002727 -0.038406 -0.019655 -0.571506 1.730082 -0.691294
Neck 23.664426 4.731585 30.174012
Head -0.316460 0.386060 0.144845 -33.288444 -4.309091 -0.704635
LeftShoulderDummy -0.062535 -0.039678 -0.003577 -0.537183 1.594104 -0.505930
LeftShoulder 11.063703 -3.953596 18.282360
LeftArm 0.262903 43.044558 14.184968
LeftForeArm 92.233847
LeftForeArmRoll -27.354344
LeftHand -9.024022 3.342095 -3.004340
LeftHandThumb1 15.185785 12.691098
LeftHandIndex1 16.419101 41.183695
LeftHandPinky1 14.333510 46.315284
RightShoulderDummy -0.021139 -0.015524 0.038764 -0.588200 -1.763235 0.784023
RightShoulder 7.954926 3.779595 21.251607
RightArm -52.782617 50.011748 -3.106611
RightForeArm 115.919990
RightForeArmRoll 7.834391
RightHand -17.369712 -15.963370 12.450205
RightHandThumb1 -1.068944 13.898971
RightHandIndex1 14.450114 59.884744
RightHandPinky1 19.153272 69.221220
LeftUpLeg 16.168740 10.110530 -8.299702
LeftLeg 30.767036
LeftFoot 0.403494 -0.546287 -0.343597 -10.031322 11.362199 -10.191078
LeftToeBase -1.532345
RightUpLeg 11.895992 14.319536 -6.666930
RightLeg 34.172347
RightFoot -0.414608 0.254836 0.084426 -3.290119 4.020676 -21.345925
RightToeBase -0.678575
22
root 51.721737 0.252353 52.634639 -5.727898 4.272966 -128.645182
Spine 6.725672 -0.987479 -0.639508
Spine1 2.013166 1.219121 -1.323633
Spine2 0.827572 -2.329126 -1.864973
NeckDummy 0.001715 -0.042141 -0.019472 -0.558495 1.613418 -0.673438
Neck 23.568688 4.690177 30.044164
Head -0.327845 0.382503 0.141260 -33.176300 -4.439229 -0.833257
LeftShoulderDummy -0.063777 -0.043366 -0.001818 -0.524888 1.476649 -0.485371
LeftShoulder 11.032623 -3.901971 18.249052
LeftArm 0.396356 43.088986 14.273148
LeftForeArm 92.231931
LeftForeArmRoll -27.345852
LeftHand -9.047936 3.350925 -3.032515
LeftHandThumb1 15.172706 12.746648
LeftHandIndex1 16.522114 41.461629
LeftHandPinky1 14.359981 46.483377
RightShoulderDummy -0.022171 -0.019525 0.035855 -0.575928 -1.645319 0.764868
RightShoulder 7.926016 3.707975 21.267280
RightArm -52.666116 49.979211 -3.096681
RightForeArm 115.891583
RightForeArmRoll 7.877725
RightHand -17.383585 -15.906938 12.405693
RightHandThumb1 -1.192760 13.817736
RightHandIndex1 14.570921 59.566628
RightHandPinky1 19.149877 69.138477
LeftUpLeg 16.171584 10.029650 -8.098036
LeftLeg 30.599485
LeftFoot 0.383911 -0.528490 -0.340954 -9.819710 11.430417 -10.209127
LeftToeBase -1.708835
RightUpLeg 11.852258 14.367803 -6.560036
RightLeg 34.069701
RightFoot -0.405032 0.257983 0.087542 -3.342117 3.984328 -21.225827
RightToeBase -0.751931
23
root 51.662346 0.254903 52.667458 -5.755026 4.279733 -128.702908
Spine 6.730255 -1.014736 -0.614416
Spine1 2.029861 1.220770 -1.271171
Spine2 0.793328 -2.195749 -2.036679
NeckDummy 0.002514 -0.045079 -0.018564 -0.534865 1.726379 -0.657448
Neck 23.608678 4.474202 29.980074
Head -0.327206 0.382845 0.142004 -33.190531 -4.448181 -0.798248
LeftShoulderDummy -0.062263 -0.046075 -0.004129 -0.501282 1.589747 -0.469856
LeftShoulder 11.035384 -4.009976 18.204731
LeftArm 0.460856 43.061779 14.217087
LeftForeArm 92.224515
LeftForeArmRoll -27.231063
LeftHand -9.001079 3.273732 -3.012454
LeftHandThumb1 15.386524 12.860018
LeftHandIndex1 16.340155 41.851462
LeftHandPinky1 14.250970 46.726450
RightShoulderDummy -0.020519 -0.022835 0.038089 -0.552383 -1.758849 0.749374
RightShoulder 7.926174 3.771827 21.241853
RightArm -52.441899 50.038773 -3.016310
RightForeArm 115.859408
RightForeArmRoll 7.884240
RightHand -17.372086 -15.681413 12.287716
RightHandThumb1 -1.396828 13.822010
RightHandIndex1 14.730813 59.280250
RightHandPinky1 19.364042 68.893844
LeftUpLeg 16.175787 9.897403 -7.908775
LeftLeg 30.453036
LeftFoot 0.383043 -0.513666 -0.335522 -9.886700 11.568604 -10.291971
LeftToeBase -1.611636
RightUpLeg 11.958381 14.513597 -6.470980
RightLeg 33.991775
RightFoot -0.407641 0.253844 0.088118 -3.513007 3.799283 -21.092651
RightToeBase -0.764323
